<svg viewBox="-16 -32 880 192" width="880" height="192" xmlns="http://www.w3.org/2000/svg"><desc>Generated with https://github.com/Platane/snk</desc><style>:root{--cb:#1b1f230a;--cs:purple;--ce:#161b22;--c0:#161b22;--c1:#01311f;--c2:#034525;--c3:#0f6d31;--c4:#00c647}.c{shape-rendering:geometricPrecision;fill:var(--ce);stroke-width:1px;stroke:var(--cb);animation:none 29300ms linear infinite;width:12px;height:12px}@keyframes c0{63.81%{fill:var(--c4)}63.83%,100%{fill:var(--ce)}}.c.c0{fill:var(--c4);animation-name:c0}@keyframes c1{63.47%{fill:var(--c4)}63.49%,100%{fill:var(--ce)}}.c.c1{fill:var(--c4);animation-name:c1}@keyframes c2{3.06%{fill:var(--c1)}3.08%,100%{fill:var(--ce)}}.c.c2{fill:var(--c1);animation-name:c2}@keyframes c3{22.86%{fill:var(--c1)}22.88%,100%{fill:var(--ce)}}.c.c3{fill:var(--c1);animation-name:c3}@keyframes c4{5.11%{fill:var(--c1)}5.13%,100%{fill:var(--ce)}}.c.c4{fill:var(--c1);animation-name:c4}@keyframes c5{6.13%{fill:var(--c1)}6.15%,100%{fill:var(--ce)}}.c.c5{fill:var(--c1);animation-name:c5}@keyframes c6{60.4%{fill:var(--c4)}60.42%,100%{fill:var(--ce)}}.c.c6{fill:var(--c4);animation-name:c6}@keyframes c7{60.74%{fill:var(--c4)}60.76%,100%{fill:var(--ce)}}.c.c7{fill:var(--c4);animation-name:c7}@keyframes c8{59.03%{fill:var(--c4)}59.05%,100%{fill:var(--ce)}}.c.c8{fill:var(--c4);animation-name:c8}@keyframes c9{58.01%{fill:var(--c4)}58.03%,100%{fill:var(--ce)}}.c.c9{fill:var(--c4);animation-name:c9}@keyframes ca{57.67%{fill:var(--c2)}57.69%,100%{fill:var(--ce)}}.c.ca{fill:var(--c2);animation-name:ca}@keyframes cb{8.18%{fill:var(--c1)}8.2%,100%{fill:var(--ce)}}.c.cb{fill:var(--c1);animation-name:cb}@keyframes cc{9.21%{fill:var(--c1)}9.23%,100%{fill:var(--ce)}}.c.cc{fill:var(--c1);animation-name:cc}@keyframes cd{8.86%{fill:var(--c1)}8.88%,100%{fill:var(--ce)}}.c.cd{fill:var(--c1);animation-name:cd}@keyframes ce{17.4%{fill:var(--c1)}17.42%,100%{fill:var(--ce)}}.c.ce{fill:var(--c1);animation-name:ce}@keyframes cf{10.23%{fill:var(--c1)}10.25%,100%{fill:var(--ce)}}.c.cf{fill:var(--c1);animation-name:cf}@keyframes cg{16.37%{fill:var(--c1)}16.39%,100%{fill:var(--ce)}}.c.cg{fill:var(--c1);animation-name:cg}@keyframes ch{11.94%{fill:var(--c1)}11.96%,100%{fill:var(--ce)}}.c.ch{fill:var(--c1);animation-name:ch}@keyframes ci{15.01%{fill:var(--c1)}15.03%,100%{fill:var(--ce)}}.c.ci{fill:var(--c1);animation-name:ci}@keyframes cj{15.35%{fill:var(--c1)}15.37%,100%{fill:var(--ce)}}.c.cj{fill:var(--c1);animation-name:cj}@keyframes ck{14.32%{fill:var(--c1)}14.34%,100%{fill:var(--ce)}}.c.ck{fill:var(--c1);animation-name:ck}@keyframes cl{13.98%{fill:var(--c1)}14%,100%{fill:var(--ce)}}.c.cl{fill:var(--c1);animation-name:cl}@keyframes cm{12.62%{fill:var(--c1)}12.64%,100%{fill:var(--ce)}}.c.cm{fill:var(--c1);animation-name:cm}@keyframes cn{44.7%{fill:var(--c2)}44.72%,100%{fill:var(--ce)}}.c.cn{fill:var(--c2);animation-name:cn}@keyframes co{46.41%{fill:var(--c2)}46.43%,100%{fill:var(--ce)}}.c.co{fill:var(--c2);animation-name:co}@keyframes cp{39.58%{fill:var(--c2)}39.6%,100%{fill:var(--ce)}}.c.cp{fill:var(--c2);animation-name:cp}@keyframes cq{78.83%{fill:var(--c4)}78.85%,100%{fill:var(--ce)}}.c.cq{fill:var(--c4);animation-name:cq}@keyframes cr{79.17%{fill:var(--c4)}79.19%,100%{fill:var(--ce)}}.c.cr{fill:var(--c4);animation-name:cr}@keyframes cs{41.29%{fill:var(--c2)}41.31%,100%{fill:var(--ce)}}.c.cs{fill:var(--c2);animation-name:cs}@keyframes ct{81.9%{fill:var(--c4)}81.92%,100%{fill:var(--ce)}}.c.ct{fill:var(--c4);animation-name:ct}@keyframes cu{38.56%{fill:var(--c1)}38.58%,100%{fill:var(--ce)}}.c.cu{fill:var(--c1);animation-name:cu}@keyframes cv{81.22%{fill:var(--c4)}81.24%,100%{fill:var(--ce)}}.c.cv{fill:var(--c4);animation-name:cv}.u{transform-origin:0 0;transform:scale(0,1);animation:none linear 29300ms infinite}@keyframes u0{3.06%{transform:scale(0.000,1)}3.08%,5.11%{transform:scale(0.059,1)}5.13%,6.13%{transform:scale(0.118,1)}6.15%,8.18%{transform:scale(0.176,1)}8.2%,8.86%{transform:scale(0.235,1)}8.88%,9.21%{transform:scale(0.294,1)}9.23%,10.23%{transform:scale(0.353,1)}10.25%,11.94%{transform:scale(0.412,1)}11.96%,12.62%{transform:scale(0.471,1)}12.64%,13.98%{transform:scale(0.529,1)}14%,14.32%{transform:scale(0.588,1)}14.34%,15.01%{transform:scale(0.647,1)}15.03%,15.35%{transform:scale(0.706,1)}15.37%,16.37%{transform:scale(0.765,1)}16.39%,17.4%{transform:scale(0.824,1)}17.42%,22.86%{transform:scale(0.882,1)}22.88%,38.56%{transform:scale(0.941,1)}38.58%,100%{transform:scale(1.000,1)}}.u.u0{fill:var(--c1);animation-name:u0;transform-origin:0.0px 0}@keyframes u1{39.58%{transform:scale(0.000,1)}39.6%,41.29%{transform:scale(0.200,1)}41.31%,44.7%{transform:scale(0.400,1)}44.72%,46.41%{transform:scale(0.600,1)}46.43%,57.67%{transform:scale(0.800,1)}57.69%,100%{transform:scale(1.000,1)}}.u.u1{fill:var(--c2);animation-name:u1;transform-origin:450.5px 0}@keyframes u2{58.01%{transform:scale(0.000,1)}58.03%,59.03%{transform:scale(0.100,1)}59.05%,60.4%{transform:scale(0.200,1)}60.42%,60.74%{transform:scale(0.300,1)}60.76%,63.47%{transform:scale(0.400,1)}63.49%,63.81%{transform:scale(0.500,1)}63.83%,78.83%{transform:scale(0.600,1)}78.85%,79.17%{transform:scale(0.700,1)}79.19%,81.22%{transform:scale(0.800,1)}81.24%,81.9%{transform:scale(0.900,1)}81.92%,100%{transform:scale(1.000,1)}}.u.u2{fill:var(--c4);animation-name:u2;transform-origin:583.0px 0}.s{shape-rendering:geometricPrecision;fill:var(--cs);animation:none linear 29300ms infinite}@keyframes s0{0%,99.66%{transform:translate(0px,-16px)}0.34%{transform:translate(0px,0px)}4.1%{transform:translate(176px,0px)}5.12%{transform:translate(176px,48px)}5.8%{transform:translate(208px,48px)}6.83%{transform:translate(208px,96px)}7.85%{transform:translate(256px,96px)}8.19%{transform:translate(256px,80px)}8.87%{transform:translate(288px,80px)}9.22%{transform:translate(288px,64px)}9.56%{transform:translate(304px,64px)}10.24%{transform:translate(304px,96px)}11.6%{transform:translate(368px,96px)}11.95%{transform:translate(368px,80px)}12.63%{transform:translate(400px,80px)}14.33%{transform:translate(400px,0px)}14.68%{transform:translate(384px,0px)}15.36%{transform:translate(384px,32px)}16.38%{transform:translate(336px,32px)}16.72%{transform:translate(336px,16px)}18.43%,58.7%{transform:translate(256px,16px)}18.77%{transform:translate(256px,32px)}21.5%{transform:translate(128px,32px)}22.87%{transform:translate(128px,96px)}36.86%,40.96%{transform:translate(784px,96px)}37.2%,41.98%{transform:translate(784px,112px)}37.88%{transform:translate(816px,112px)}39.25%{transform:translate(816px,48px)}39.93%{transform:translate(784px,48px)}41.3%{transform:translate(800px,96px)}41.64%{transform:translate(800px,112px)}43%{transform:translate(784px,64px)}44.71%{transform:translate(704px,64px)}45.05%{transform:translate(704px,48px)}45.39%{transform:translate(720px,48px)}46.42%{transform:translate(720px,0px)}55.97%{transform:translate(272px,0px)}57.34%{transform:translate(272px,64px)}57.68%{transform:translate(256px,64px)}59.39%{transform:translate(224px,16px)}60.75%{transform:translate(224px,80px)}61.09%{transform:translate(208px,80px)}61.43%{transform:translate(208px,64px)}63.48%{transform:translate(112px,64px)}63.82%{transform:translate(112px,48px)}78.5%{transform:translate(800px,48px)}79.18%{transform:translate(800px,80px)}79.86%{transform:translate(832px,80px)}81.57%{transform:translate(832px,0px)}97.95%{transform:translate(64px,0px)}98.29%{transform:translate(64px,-16px)}}.s.s0{transform:translate(0px,-16px);animation-name:s0}@keyframes s1{0%,99.66%{transform:translate(16px,-16px)}0.34%{transform:translate(0px,-16px)}0.68%{transform:translate(0px,0px)}4.44%{transform:translate(176px,0px)}5.46%{transform:translate(176px,48px)}6.14%{transform:translate(208px,48px)}7.17%{transform:translate(208px,96px)}8.19%{transform:translate(256px,96px)}8.53%{transform:translate(256px,80px)}9.22%{transform:translate(288px,80px)}9.56%{transform:translate(288px,64px)}9.9%{transform:translate(304px,64px)}10.58%{transform:translate(304px,96px)}11.95%{transform:translate(368px,96px)}12.29%{transform:translate(368px,80px)}12.97%{transform:translate(400px,80px)}14.68%{transform:translate(400px,0px)}15.02%{transform:translate(384px,0px)}15.7%{transform:translate(384px,32px)}16.72%{transform:translate(336px,32px)}17.06%{transform:translate(336px,16px)}18.77%,59.04%{transform:translate(256px,16px)}19.11%{transform:translate(256px,32px)}21.84%{transform:translate(128px,32px)}23.21%{transform:translate(128px,96px)}37.2%,41.3%{transform:translate(784px,96px)}37.54%,42.32%{transform:translate(784px,112px)}38.23%{transform:translate(816px,112px)}39.59%{transform:translate(816px,48px)}40.27%{transform:translate(784px,48px)}41.64%{transform:translate(800px,96px)}41.98%{transform:translate(800px,112px)}43.34%{transform:translate(784px,64px)}45.05%{transform:translate(704px,64px)}45.39%{transform:translate(704px,48px)}45.73%{transform:translate(720px,48px)}46.76%{transform:translate(720px,0px)}56.31%{transform:translate(272px,0px)}57.68%{transform:translate(272px,64px)}58.02%{transform:translate(256px,64px)}59.73%{transform:translate(224px,16px)}61.09%{transform:translate(224px,80px)}61.43%{transform:translate(208px,80px)}61.77%{transform:translate(208px,64px)}63.82%{transform:translate(112px,64px)}64.16%{transform:translate(112px,48px)}78.84%{transform:translate(800px,48px)}79.52%{transform:translate(800px,80px)}80.2%{transform:translate(832px,80px)}81.91%{transform:translate(832px,0px)}98.29%{transform:translate(64px,0px)}98.63%{transform:translate(64px,-16px)}}.s.s1{transform:translate(16px,-16px);animation-name:s1}@keyframes s2{0%,99.66%{transform:translate(32px,-16px)}0.68%{transform:translate(0px,-16px)}1.02%{transform:translate(0px,0px)}4.78%{transform:translate(176px,0px)}5.8%{transform:translate(176px,48px)}6.48%{transform:translate(208px,48px)}7.51%{transform:translate(208px,96px)}8.53%{transform:translate(256px,96px)}8.87%{transform:translate(256px,80px)}9.56%{transform:translate(288px,80px)}9.9%{transform:translate(288px,64px)}10.24%{transform:translate(304px,64px)}10.92%{transform:translate(304px,96px)}12.29%{transform:translate(368px,96px)}12.63%{transform:translate(368px,80px)}13.31%{transform:translate(400px,80px)}15.02%{transform:translate(400px,0px)}15.36%{transform:translate(384px,0px)}16.04%{transform:translate(384px,32px)}17.06%{transform:translate(336px,32px)}17.41%{transform:translate(336px,16px)}19.11%,59.39%{transform:translate(256px,16px)}19.45%{transform:translate(256px,32px)}22.18%{transform:translate(128px,32px)}23.55%{transform:translate(128px,96px)}37.54%,41.64%{transform:translate(784px,96px)}37.88%,42.66%{transform:translate(784px,112px)}38.57%{transform:translate(816px,112px)}39.93%{transform:translate(816px,48px)}40.61%{transform:translate(784px,48px)}41.98%{transform:translate(800px,96px)}42.32%{transform:translate(800px,112px)}43.69%{transform:translate(784px,64px)}45.39%{transform:translate(704px,64px)}45.73%{transform:translate(704px,48px)}46.08%{transform:translate(720px,48px)}47.1%{transform:translate(720px,0px)}56.66%{transform:translate(272px,0px)}58.02%{transform:translate(272px,64px)}58.36%{transform:translate(256px,64px)}60.07%{transform:translate(224px,16px)}61.43%{transform:translate(224px,80px)}61.77%{transform:translate(208px,80px)}62.12%{transform:translate(208px,64px)}64.16%{transform:translate(112px,64px)}64.51%{transform:translate(112px,48px)}79.18%{transform:translate(800px,48px)}79.86%{transform:translate(800px,80px)}80.55%{transform:translate(832px,80px)}82.25%{transform:translate(832px,0px)}98.63%{transform:translate(64px,0px)}98.98%{transform:translate(64px,-16px)}}.s.s2{transform:translate(32px,-16px);animation-name:s2}@keyframes s3{0%,99.66%{transform:translate(48px,-16px)}1.02%{transform:translate(0px,-16px)}1.37%{transform:translate(0px,0px)}5.12%{transform:translate(176px,0px)}6.14%{transform:translate(176px,48px)}6.83%{transform:translate(208px,48px)}7.85%{transform:translate(208px,96px)}8.87%{transform:translate(256px,96px)}9.22%{transform:translate(256px,80px)}9.9%{transform:translate(288px,80px)}10.24%{transform:translate(288px,64px)}10.58%{transform:translate(304px,64px)}11.26%{transform:translate(304px,96px)}12.63%{transform:translate(368px,96px)}12.97%{transform:translate(368px,80px)}13.65%{transform:translate(400px,80px)}15.36%{transform:translate(400px,0px)}15.7%{transform:translate(384px,0px)}16.38%{transform:translate(384px,32px)}17.41%{transform:translate(336px,32px)}17.75%{transform:translate(336px,16px)}19.45%,59.73%{transform:translate(256px,16px)}19.8%{transform:translate(256px,32px)}22.53%{transform:translate(128px,32px)}23.89%{transform:translate(128px,96px)}37.88%,41.98%{transform:translate(784px,96px)}38.23%,43%{transform:translate(784px,112px)}38.91%{transform:translate(816px,112px)}40.27%{transform:translate(816px,48px)}40.96%{transform:translate(784px,48px)}42.32%{transform:translate(800px,96px)}42.66%{transform:translate(800px,112px)}44.03%{transform:translate(784px,64px)}45.73%{transform:translate(704px,64px)}46.08%{transform:translate(704px,48px)}46.42%{transform:translate(720px,48px)}47.44%{transform:translate(720px,0px)}57%{transform:translate(272px,0px)}58.36%{transform:translate(272px,64px)}58.7%{transform:translate(256px,64px)}60.41%{transform:translate(224px,16px)}61.77%{transform:translate(224px,80px)}62.12%{transform:translate(208px,80px)}62.46%{transform:translate(208px,64px)}64.51%{transform:translate(112px,64px)}64.85%{transform:translate(112px,48px)}79.52%{transform:translate(800px,48px)}80.2%{transform:translate(800px,80px)}80.89%{transform:translate(832px,80px)}82.59%{transform:translate(832px,0px)}98.98%{transform:translate(64px,0px)}99.32%{transform:translate(64px,-16px)}}.s.s3{transform:translate(48px,-16px);animation-name:s3}</style><rect class="c" x="2" y="2" rx="2" ry="2"/><rect class="c" x="2" y="18" rx="2" ry="2"/><rect class="c" x="2" y="34" rx="2" ry="2"/><rect class="c" x="2" y="50" rx="2" ry="2"/><rect class="c" x="2" y="66" rx="2" ry="2"/><rect class="c" x="2" y="82" rx="2" ry="2"/><rect class="c" x="2" y="98" rx="2" ry="2"/><rect class="c" x="18" y="2" rx="2" ry="2"/><rect class="c" x="18" y="18" rx="2" ry="2"/><rect class="c" x="18" y="34" rx="2" ry="2"/><rect class="c" x="18" y="50" rx="2" ry="2"/><rect class="c" x="18" y="66" rx="2" ry="2"/><rect class="c" x="18" y="82" rx="2" ry="2"/><rect class="c" x="18" y="98" rx="2" ry="2"/><rect class="c" x="34" y="2" rx="2" ry="2"/><rect class="c" x="34" y="18" rx="2" ry="2"/><rect class="c" x="34" y="34" rx="2" ry="2"/><rect class="c" x="34" y="50" rx="2" ry="2"/><rect class="c" x="34" y="66" rx="2" ry="2"/><rect class="c" x="34" y="82" rx="2" ry="2"/><rect class="c" x="34" y="98" rx="2" ry="2"/><rect class="c" x="50" y="2" rx="2" ry="2"/><rect class="c" x="50" y="18" rx="2" ry="2"/><rect class="c" x="50" y="34" rx="2" ry="2"/><rect class="c" x="50" y="50" rx="2" ry="2"/><rect class="c" x="50" y="66" rx="2" ry="2"/><rect class="c" x="50" y="82" rx="2" ry="2"/><rect class="c" x="50" y="98" rx="2" ry="2"/><rect class="c" x="66" y="2" rx="2" ry="2"/><rect class="c" x="66" y="18" rx="2" ry="2"/><rect class="c" x="66" y="34" rx="2" ry="2"/><rect class="c" x="66" y="50" rx="2" ry="2"/><rect class="c" x="66" y="66" rx="2" ry="2"/><rect class="c" x="66" y="82" rx="2" ry="2"/><rect class="c" x="66" y="98" rx="2" ry="2"/><rect class="c" x="82" y="2" rx="2" ry="2"/><rect class="c" x="82" y="18" rx="2" ry="2"/><rect class="c" x="82" y="34" rx="2" ry="2"/><rect class="c" x="82" y="50" rx="2" ry="2"/><rect class="c" x="82" y="66" rx="2" ry="2"/><rect class="c" x="82" y="82" rx="2" ry="2"/><rect class="c" x="82" y="98" rx="2" ry="2"/><rect class="c" x="98" y="2" rx="2" ry="2"/><rect class="c" x="98" y="18" rx="2" ry="2"/><rect class="c" x="98" y="34" rx="2" ry="2"/><rect class="c" x="98" y="50" rx="2" ry="2"/><rect class="c" x="98" y="66" rx="2" ry="2"/><rect class="c" x="98" y="82" rx="2" ry="2"/><rect class="c" x="98" y="98" rx="2" ry="2"/><rect class="c" x="114" y="2" rx="2" ry="2"/><rect class="c" x="114" y="18" rx="2" ry="2"/><rect class="c" x="114" y="34" rx="2" ry="2"/><rect class="c c0" x="114" y="50" rx="2" ry="2"/><rect class="c c1" x="114" y="66" rx="2" ry="2"/><rect class="c" x="114" y="82" rx="2" ry="2"/><rect class="c" x="114" y="98" rx="2" ry="2"/><rect class="c c2" x="130" y="2" rx="2" ry="2"/><rect class="c" x="130" y="18" rx="2" ry="2"/><rect class="c" x="130" y="34" rx="2" ry="2"/><rect class="c" x="130" y="50" rx="2" ry="2"/><rect class="c" x="130" y="66" rx="2" ry="2"/><rect class="c" x="130" y="82" rx="2" ry="2"/><rect class="c c3" x="130" y="98" rx="2" ry="2"/><rect class="c" x="146" y="2" rx="2" ry="2"/><rect class="c" x="146" y="18" rx="2" ry="2"/><rect class="c" x="146" y="34" rx="2" ry="2"/><rect class="c" x="146" y="50" rx="2" ry="2"/><rect class="c" x="146" y="66" rx="2" ry="2"/><rect class="c" x="146" y="82" rx="2" ry="2"/><rect class="c" x="146" y="98" rx="2" ry="2"/><rect class="c" x="162" y="2" rx="2" ry="2"/><rect class="c" x="162" y="18" rx="2" ry="2"/><rect class="c" x="162" y="34" rx="2" ry="2"/><rect class="c" x="162" y="50" rx="2" ry="2"/><rect class="c" x="162" y="66" rx="2" ry="2"/><rect class="c" x="162" y="82" rx="2" ry="2"/><rect class="c" x="162" y="98" rx="2" ry="2"/><rect class="c" x="178" y="2" rx="2" ry="2"/><rect class="c" x="178" y="18" rx="2" ry="2"/><rect class="c" x="178" y="34" rx="2" ry="2"/><rect class="c c4" x="178" y="50" rx="2" ry="2"/><rect class="c" x="178" y="66" rx="2" ry="2"/><rect class="c" x="178" y="82" rx="2" ry="2"/><rect class="c" x="178" y="98" rx="2" ry="2"/><rect class="c" x="194" y="2" rx="2" ry="2"/><rect class="c" x="194" y="18" rx="2" ry="2"/><rect class="c" x="194" y="34" rx="2" ry="2"/><rect class="c" x="194" y="50" rx="2" ry="2"/><rect class="c" x="194" y="66" rx="2" ry="2"/><rect class="c" x="194" y="82" rx="2" ry="2"/><rect class="c" x="194" y="98" rx="2" ry="2"/><rect class="c" x="210" y="2" rx="2" ry="2"/><rect class="c" x="210" y="18" rx="2" ry="2"/><rect class="c" x="210" y="34" rx="2" ry="2"/><rect class="c" x="210" y="50" rx="2" ry="2"/><rect class="c c5" x="210" y="66" rx="2" ry="2"/><rect class="c" x="210" y="82" rx="2" ry="2"/><rect class="c" x="210" y="98" rx="2" ry="2"/><rect class="c" x="226" y="2" rx="2" ry="2"/><rect class="c" x="226" y="18" rx="2" ry="2"/><rect class="c" x="226" y="34" rx="2" ry="2"/><rect class="c" x="226" y="50" rx="2" ry="2"/><rect class="c c6" x="226" y="66" rx="2" ry="2"/><rect class="c c7" x="226" y="82" rx="2" ry="2"/><rect class="c" x="226" y="98" rx="2" ry="2"/><rect class="c" x="242" y="2" rx="2" ry="2"/><rect class="c c8" x="242" y="18" rx="2" ry="2"/><rect class="c" x="242" y="34" rx="2" ry="2"/><rect class="c" x="242" y="50" rx="2" ry="2"/><rect class="c" x="242" y="66" rx="2" ry="2"/><rect class="c" x="242" y="82" rx="2" ry="2"/><rect class="c" x="242" y="98" rx="2" ry="2"/><rect class="c" x="258" y="2" rx="2" ry="2"/><rect class="c" x="258" y="18" rx="2" ry="2"/><rect class="c" x="258" y="34" rx="2" ry="2"/><rect class="c c9" x="258" y="50" rx="2" ry="2"/><rect class="c ca" x="258" y="66" rx="2" ry="2"/><rect class="c cb" x="258" y="82" rx="2" ry="2"/><rect class="c" x="258" y="98" rx="2" ry="2"/><rect class="c" x="274" y="2" rx="2" ry="2"/><rect class="c" x="274" y="18" rx="2" ry="2"/><rect class="c" x="274" y="34" rx="2" ry="2"/><rect class="c" x="274" y="50" rx="2" ry="2"/><rect class="c" x="274" y="66" rx="2" ry="2"/><rect class="c" x="274" y="82" rx="2" ry="2"/><rect class="c" x="274" y="98" rx="2" ry="2"/><rect class="c" x="290" y="2" rx="2" ry="2"/><rect class="c" x="290" y="18" rx="2" ry="2"/><rect class="c" x="290" y="34" rx="2" ry="2"/><rect class="c" x="290" y="50" rx="2" ry="2"/><rect class="c cc" x="290" y="66" rx="2" ry="2"/><rect class="c cd" x="290" y="82" rx="2" ry="2"/><rect class="c" x="290" y="98" rx="2" ry="2"/><rect class="c" x="306" y="2" rx="2" ry="2"/><rect class="c ce" x="306" y="18" rx="2" ry="2"/><rect class="c" x="306" y="34" rx="2" ry="2"/><rect class="c" x="306" y="50" rx="2" ry="2"/><rect class="c" x="306" y="66" rx="2" ry="2"/><rect class="c" x="306" y="82" rx="2" ry="2"/><rect class="c cf" x="306" y="98" rx="2" ry="2"/><rect class="c" x="322" y="2" rx="2" ry="2"/><rect class="c" x="322" y="18" rx="2" ry="2"/><rect class="c" x="322" y="34" rx="2" ry="2"/><rect class="c" x="322" y="50" rx="2" ry="2"/><rect class="c" x="322" y="66" rx="2" ry="2"/><rect class="c" x="322" y="82" rx="2" ry="2"/><rect class="c" x="322" y="98" rx="2" ry="2"/><rect class="c" x="338" y="2" rx="2" ry="2"/><rect class="c" x="338" y="18" rx="2" ry="2"/><rect class="c cg" x="338" y="34" rx="2" ry="2"/><rect class="c" x="338" y="50" rx="2" ry="2"/><rect class="c" x="338" y="66" rx="2" ry="2"/><rect class="c" x="338" y="82" rx="2" ry="2"/><rect class="c" x="338" y="98" rx="2" ry="2"/><rect class="c" x="354" y="2" rx="2" ry="2"/><rect class="c" x="354" y="18" rx="2" ry="2"/><rect class="c" x="354" y="34" rx="2" ry="2"/><rect class="c" x="354" y="50" rx="2" ry="2"/><rect class="c" x="354" y="66" rx="2" ry="2"/><rect class="c" x="354" y="82" rx="2" ry="2"/><rect class="c" x="354" y="98" rx="2" ry="2"/><rect class="c" x="370" y="2" rx="2" ry="2"/><rect class="c" x="370" y="18" rx="2" ry="2"/><rect class="c" x="370" y="34" rx="2" ry="2"/><rect class="c" x="370" y="50" rx="2" ry="2"/><rect class="c" x="370" y="66" rx="2" ry="2"/><rect class="c ch" x="370" y="82" rx="2" ry="2"/><rect class="c" x="370" y="98" rx="2" ry="2"/><rect class="c" x="386" y="2" rx="2" ry="2"/><rect class="c ci" x="386" y="18" rx="2" ry="2"/><rect class="c cj" x="386" y="34" rx="2" ry="2"/><rect class="c" x="386" y="50" rx="2" ry="2"/><rect class="c" x="386" y="66" rx="2" ry="2"/><rect class="c" x="386" y="82" rx="2" ry="2"/><rect class="c" x="386" y="98" rx="2" ry="2"/><rect class="c ck" x="402" y="2" rx="2" ry="2"/><rect class="c cl" x="402" y="18" rx="2" ry="2"/><rect class="c" x="402" y="34" rx="2" ry="2"/><rect class="c" x="402" y="50" rx="2" ry="2"/><rect class="c" x="402" y="66" rx="2" ry="2"/><rect class="c cm" x="402" y="82" rx="2" ry="2"/><rect class="c" x="402" y="98" rx="2" ry="2"/><rect class="c" x="418" y="2" rx="2" ry="2"/><rect class="c" x="418" y="18" rx="2" ry="2"/><rect class="c" x="418" y="34" rx="2" ry="2"/><rect class="c" x="418" y="50" rx="2" ry="2"/><rect class="c" x="418" y="66" rx="2" ry="2"/><rect class="c" x="418" y="82" rx="2" ry="2"/><rect class="c" x="418" y="98" rx="2" ry="2"/><rect class="c" x="434" y="2" rx="2" ry="2"/><rect class="c" x="434" y="18" rx="2" ry="2"/><rect class="c" x="434" y="34" rx="2" ry="2"/><rect class="c" x="434" y="50" rx="2" ry="2"/><rect class="c" x="434" y="66" rx="2" ry="2"/><rect class="c" x="434" y="82" rx="2" ry="2"/><rect class="c" x="434" y="98" rx="2" ry="2"/><rect class="c" x="450" y="2" rx="2" ry="2"/><rect class="c" x="450" y="18" rx="2" ry="2"/><rect class="c" x="450" y="34" rx="2" ry="2"/><rect class="c" x="450" y="50" rx="2" ry="2"/><rect class="c" x="450" y="66" rx="2" ry="2"/><rect class="c" x="450" y="82" rx="2" ry="2"/><rect class="c" x="450" y="98" rx="2" ry="2"/><rect class="c" x="466" y="2" rx="2" ry="2"/><rect class="c" x="466" y="18" rx="2" ry="2"/><rect class="c" x="466" y="34" rx="2" ry="2"/><rect class="c" x="466" y="50" rx="2" ry="2"/><rect class="c" x="466" y="66" rx="2" ry="2"/><rect class="c" x="466" y="82" rx="2" ry="2"/><rect class="c" x="466" y="98" rx="2" ry="2"/><rect class="c" x="482" y="2" rx="2" ry="2"/><rect class="c" x="482" y="18" rx="2" ry="2"/><rect class="c" x="482" y="34" rx="2" ry="2"/><rect class="c" x="482" y="50" rx="2" ry="2"/><rect class="c" x="482" y="66" rx="2" ry="2"/><rect class="c" x="482" y="82" rx="2" ry="2"/><rect class="c" x="482" y="98" rx="2" ry="2"/><rect class="c" x="498" y="2" rx="2" ry="2"/><rect class="c" x="498" y="18" rx="2" ry="2"/><rect class="c" x="498" y="34" rx="2" ry="2"/><rect class="c" x="498" y="50" rx="2" ry="2"/><rect class="c" x="498" y="66" rx="2" ry="2"/><rect class="c" x="498" y="82" rx="2" ry="2"/><rect class="c" x="498" y="98" rx="2" ry="2"/><rect class="c" x="514" y="2" rx="2" ry="2"/><rect class="c" x="514" y="18" rx="2" ry="2"/><rect class="c" x="514" y="34" rx="2" ry="2"/><rect class="c" x="514" y="50" rx="2" ry="2"/><rect class="c" x="514" y="66" rx="2" ry="2"/><rect class="c" x="514" y="82" rx="2" ry="2"/><rect class="c" x="514" y="98" rx="2" ry="2"/><rect class="c" x="530" y="2" rx="2" ry="2"/><rect class="c" x="530" y="18" rx="2" ry="2"/><rect class="c" x="530" y="34" rx="2" ry="2"/><rect class="c" x="530" y="50" rx="2" ry="2"/><rect class="c" x="530" y="66" rx="2" ry="2"/><rect class="c" x="530" y="82" rx="2" ry="2"/><rect class="c" x="530" y="98" rx="2" ry="2"/><rect class="c" x="546" y="2" rx="2" ry="2"/><rect class="c" x="546" y="18" rx="2" ry="2"/><rect class="c" x="546" y="34" rx="2" ry="2"/><rect class="c" x="546" y="50" rx="2" ry="2"/><rect class="c" x="546" y="66" rx="2" ry="2"/><rect class="c" x="546" y="82" rx="2" ry="2"/><rect class="c" x="546" y="98" rx="2" ry="2"/><rect class="c" x="562" y="2" rx="2" ry="2"/><rect class="c" x="562" y="18" rx="2" ry="2"/><rect class="c" x="562" y="34" rx="2" ry="2"/><rect class="c" x="562" y="50" rx="2" ry="2"/><rect class="c" x="562" y="66" rx="2" ry="2"/><rect class="c" x="562" y="82" rx="2" ry="2"/><rect class="c" x="562" y="98" rx="2" ry="2"/><rect class="c" x="578" y="2" rx="2" ry="2"/><rect class="c" x="578" y="18" rx="2" ry="2"/><rect class="c" x="578" y="34" rx="2" ry="2"/><rect class="c" x="578" y="50" rx="2" ry="2"/><rect class="c" x="578" y="66" rx="2" ry="2"/><rect class="c" x="578" y="82" rx="2" ry="2"/><rect class="c" x="578" y="98" rx="2" ry="2"/><rect class="c" x="594" y="2" rx="2" ry="2"/><rect class="c" x="594" y="18" rx="2" ry="2"/><rect class="c" x="594" y="34" rx="2" ry="2"/><rect class="c" x="594" y="50" rx="2" ry="2"/><rect class="c" x="594" y="66" rx="2" ry="2"/><rect class="c" x="594" y="82" rx="2" ry="2"/><rect class="c" x="594" y="98" rx="2" ry="2"/><rect class="c" x="610" y="2" rx="2" ry="2"/><rect class="c" x="610" y="18" rx="2" ry="2"/><rect class="c" x="610" y="34" rx="2" ry="2"/><rect class="c" x="610" y="50" rx="2" ry="2"/><rect class="c" x="610" y="66" rx="2" ry="2"/><rect class="c" x="610" y="82" rx="2" ry="2"/><rect class="c" x="610" y="98" rx="2" ry="2"/><rect class="c" x="626" y="2" rx="2" ry="2"/><rect class="c" x="626" y="18" rx="2" ry="2"/><rect class="c" x="626" y="34" rx="2" ry="2"/><rect class="c" x="626" y="50" rx="2" ry="2"/><rect class="c" x="626" y="66" rx="2" ry="2"/><rect class="c" x="626" y="82" rx="2" ry="2"/><rect class="c" x="626" y="98" rx="2" ry="2"/><rect class="c" x="642" y="2" rx="2" ry="2"/><rect class="c" x="642" y="18" rx="2" ry="2"/><rect class="c" x="642" y="34" rx="2" ry="2"/><rect class="c" x="642" y="50" rx="2" ry="2"/><rect class="c" x="642" y="66" rx="2" ry="2"/><rect class="c" x="642" y="82" rx="2" ry="2"/><rect class="c" x="642" y="98" rx="2" ry="2"/><rect class="c" x="658" y="2" rx="2" ry="2"/><rect class="c" x="658" y="18" rx="2" ry="2"/><rect class="c" x="658" y="34" rx="2" ry="2"/><rect class="c" x="658" y="50" rx="2" ry="2"/><rect class="c" x="658" y="66" rx="2" ry="2"/><rect class="c" x="658" y="82" rx="2" ry="2"/><rect class="c" x="658" y="98" rx="2" ry="2"/><rect class="c" x="674" y="2" rx="2" ry="2"/><rect class="c" x="674" y="18" rx="2" ry="2"/><rect class="c" x="674" y="34" rx="2" ry="2"/><rect class="c" x="674" y="50" rx="2" ry="2"/><rect class="c" x="674" y="66" rx="2" ry="2"/><rect class="c" x="674" y="82" rx="2" ry="2"/><rect class="c" x="674" y="98" rx="2" ry="2"/><rect class="c" x="690" y="2" rx="2" ry="2"/><rect class="c" x="690" y="18" rx="2" ry="2"/><rect class="c" x="690" y="34" rx="2" ry="2"/><rect class="c" x="690" y="50" rx="2" ry="2"/><rect class="c" x="690" y="66" rx="2" ry="2"/><rect class="c" x="690" y="82" rx="2" ry="2"/><rect class="c" x="690" y="98" rx="2" ry="2"/><rect class="c" x="706" y="2" rx="2" ry="2"/><rect class="c" x="706" y="18" rx="2" ry="2"/><rect class="c" x="706" y="34" rx="2" ry="2"/><rect class="c" x="706" y="50" rx="2" ry="2"/><rect class="c cn" x="706" y="66" rx="2" ry="2"/><rect class="c" x="706" y="82" rx="2" ry="2"/><rect class="c" x="706" y="98" rx="2" ry="2"/><rect class="c co" x="722" y="2" rx="2" ry="2"/><rect class="c" x="722" y="18" rx="2" ry="2"/><rect class="c" x="722" y="34" rx="2" ry="2"/><rect class="c" x="722" y="50" rx="2" ry="2"/><rect class="c" x="722" y="66" rx="2" ry="2"/><rect class="c" x="722" y="82" rx="2" ry="2"/><rect class="c" x="722" y="98" rx="2" ry="2"/><rect class="c" x="738" y="2" rx="2" ry="2"/><rect class="c" x="738" y="18" rx="2" ry="2"/><rect class="c" x="738" y="34" rx="2" ry="2"/><rect class="c" x="738" y="50" rx="2" ry="2"/><rect class="c" x="738" y="66" rx="2" ry="2"/><rect class="c" x="738" y="82" rx="2" ry="2"/><rect class="c" x="738" y="98" rx="2" ry="2"/><rect class="c" x="754" y="2" rx="2" ry="2"/><rect class="c" x="754" y="18" rx="2" ry="2"/><rect class="c" x="754" y="34" rx="2" ry="2"/><rect class="c" x="754" y="50" rx="2" ry="2"/><rect class="c" x="754" y="66" rx="2" ry="2"/><rect class="c" x="754" y="82" rx="2" ry="2"/><rect class="c" x="754" y="98" rx="2" ry="2"/><rect class="c" x="770" y="2" rx="2" ry="2"/><rect class="c" x="770" y="18" rx="2" ry="2"/><rect class="c" x="770" y="34" rx="2" ry="2"/><rect class="c" x="770" y="50" rx="2" ry="2"/><rect class="c" x="770" y="66" rx="2" ry="2"/><rect class="c" x="770" y="82" rx="2" ry="2"/><rect class="c" x="770" y="98" rx="2" ry="2"/><rect class="c" x="786" y="2" rx="2" ry="2"/><rect class="c" x="786" y="18" rx="2" ry="2"/><rect class="c" x="786" y="34" rx="2" ry="2"/><rect class="c" x="786" y="50" rx="2" ry="2"/><rect class="c" x="786" y="66" rx="2" ry="2"/><rect class="c" x="786" y="82" rx="2" ry="2"/><rect class="c" x="786" y="98" rx="2" ry="2"/><rect class="c" x="802" y="2" rx="2" ry="2"/><rect class="c" x="802" y="18" rx="2" ry="2"/><rect class="c" x="802" y="34" rx="2" ry="2"/><rect class="c cp" x="802" y="50" rx="2" ry="2"/><rect class="c cq" x="802" y="66" rx="2" ry="2"/><rect class="c cr" x="802" y="82" rx="2" ry="2"/><rect class="c cs" x="802" y="98" rx="2" ry="2"/><rect class="c ct" x="818" y="2" rx="2" ry="2"/><rect class="c" x="818" y="18" rx="2" ry="2"/><rect class="c" x="818" y="34" rx="2" ry="2"/><rect class="c" x="818" y="50" rx="2" ry="2"/><rect class="c" x="818" y="66" rx="2" ry="2"/><rect class="c cu" x="818" y="82" rx="2" ry="2"/><rect class="c" x="818" y="98" rx="2" ry="2"/><rect class="c" x="834" y="2" rx="2" ry="2"/><rect class="c cv" x="834" y="18" rx="2" ry="2"/><rect class="u u0" height="12" width="451.1" x="0.0" y="144"/><rect class="u u1" height="12" width="133.1" x="450.5" y="144"/><rect class="u u2" height="12" width="265.6" x="583.0" y="144"/><rect class="s s0" x="0.8" y="0.8" width="14.4" height="14.4" rx="4.5" ry="4.5"/><rect class="s s1" x="1.8" y="1.8" width="12.3" height="12.3" rx="4.1" ry="4.1"/><rect class="s s2" x="2.6" y="2.6" width="10.8" height="10.8" rx="3.6" ry="3.6"/><rect class="s s3" x="3.0" y="3.0" width="9.9" height="9.9" rx="3.3" ry="3.3"/></svg>